<svg width="1000" height="1000" viewBox="0 0 1000 1000" fill="none" xmlns="http://www.w3.org/2000/svg">
<path d="M499.984 353.695C579.953 353.695 644.768 418.512 644.768 498.472C644.768 578.424 579.953 643.239 499.984 643.239C420.03 643.239 355.207 578.424 355.207 498.472C355.207 418.51 420.03 353.695 499.984 353.695Z" fill="#4A4A48"/>
<path d="M499.984 195C461.985 195 425.728 202.3 392.165 215.053C399.497 222.499 405.56 231.167 410.216 240.674C438.4 230.866 468.537 225.283 500.001 225.283C651.475 225.283 774.692 348.542 774.692 499.984C774.692 651.426 651.474 774.708 499.984 774.708C348.526 774.708 225.3 651.442 225.3 500.001C225.3 448.98 239.533 401.345 263.852 360.359C255.518 353.979 248.169 346.329 242.284 337.613C212.498 384.693 195 440.279 195 500.001C195 668.174 331.809 805.001 499.984 805.001C668.174 805.001 805 668.176 805 500.001C805 331.826 668.174 195 499.984 195Z" fill="url(#paint0_radial_460_49)"/>
<path d="M322.906 223.5C357.43 223.5 385.41 251.48 385.41 286.004C385.41 320.527 357.43 348.508 322.906 348.508C288.391 348.508 260.402 320.527 260.402 286.004C260.402 251.48 288.391 223.5 322.906 223.5Z" fill="url(#paint1_linear_460_49)"/>
<path d="M993.153 487.749L951.184 461.749C950.832 457.672 950.436 453.599 949.997 449.53L986.059 415.874C987.878 414.206 989.236 412.098 990.003 409.753C990.771 407.407 990.922 404.904 990.442 402.483C989.961 400.063 988.866 397.807 987.261 395.932C985.656 394.058 983.596 392.628 981.278 391.781L935.153 374.531C934.002 370.548 932.804 366.579 931.56 362.625L960.309 322.656C961.754 320.661 962.665 318.33 962.954 315.884C963.243 313.437 962.902 310.958 961.962 308.681C961.023 306.404 959.516 304.405 957.586 302.875C955.655 301.344 953.366 300.333 950.934 299.938L902.279 292.032C900.404 288.344 898.435 284.719 896.435 281.094L916.872 236.251C917.916 234.012 918.366 231.542 918.177 229.079C917.989 226.616 917.169 224.243 915.797 222.189C914.424 220.134 912.546 218.469 910.342 217.352C908.138 216.236 905.684 215.706 903.216 215.814L853.873 217.533C851.318 214.346 848.713 211.2 846.06 208.095L857.404 160.002C857.98 157.604 857.932 155.099 857.263 152.726C856.594 150.353 855.327 148.191 853.583 146.447C851.84 144.704 849.678 143.437 847.305 142.768C844.931 142.099 842.426 142.051 840.029 142.627L791.967 153.939C788.842 151.314 785.717 148.721 782.498 146.127L784.217 96.815C784.325 94.347 783.795 91.8927 782.678 89.6891C781.562 87.4854 779.896 85.6068 777.842 84.2342C775.788 82.8617 773.415 82.0418 770.952 81.8534C768.488 81.6651 766.018 82.1146 763.779 83.1589L718.936 103.596C715.314 101.595 711.667 99.6362 707.998 97.7213L700.092 49.0967C699.699 46.6679 698.691 44.3799 697.164 42.4501C695.638 40.5203 693.643 39.0127 691.37 38.0703C689.097 37.128 686.621 36.7822 684.177 37.0658C681.733 37.3493 679.402 38.2529 677.405 39.6906L637.405 68.4403C633.464 67.1876 629.505 65.9895 625.53 64.8466L608.28 18.7221C607.429 16.4082 605.999 14.3515 604.126 12.7487C602.252 11.1459 599.999 10.0506 597.582 9.56773C595.164 9.08484 592.663 9.23048 590.318 9.99068C587.972 10.7509 585.861 12.1002 584.187 13.9096L550.531 50.0342C546.468 49.5967 542.406 49.1592 538.312 48.8467L512.312 6.84716C511.019 4.75377 509.211 3.02582 507.062 1.82743C504.912 0.629045 502.492 0 500.031 0C497.57 0 495.15 0.629045 493.001 1.82743C490.851 3.02582 489.044 4.75377 487.75 6.84716L461.75 48.8467C457.688 49.1592 453.594 49.5967 449.532 50.0342L415.876 13.9408C414.191 12.1554 412.081 10.8269 409.742 10.0797C407.404 9.33258 404.914 9.19125 402.507 9.66906C400.099 10.1469 397.852 11.2282 395.976 12.8116C394.1 14.395 392.657 16.4287 391.782 18.7221L374.532 64.8466C370.532 66.0028 366.563 67.2216 362.657 68.4715L322.658 39.6906C320.667 38.2277 318.334 37.3022 315.882 37.0034C313.43 36.7046 310.943 37.0426 308.66 37.9848C306.377 38.9269 304.375 40.4415 302.847 42.3823C301.32 44.3232 300.318 46.6249 299.939 49.0655L292.001 97.7213C288.345 99.6275 284.72 101.596 281.064 103.596L236.252 83.1589C234.015 82.1161 231.548 81.6666 229.088 81.8535C226.627 82.0405 224.256 82.8577 222.203 84.2264C220.15 85.5952 218.484 87.4694 217.365 89.6687C216.246 91.868 215.712 94.3183 215.814 96.7838L217.533 146.158C214.346 148.721 211.19 151.314 208.065 153.971L160.002 142.627C157.606 142.071 155.108 142.135 152.743 142.81C150.378 143.486 148.224 144.752 146.484 146.49C144.743 148.228 143.473 150.38 142.793 152.743C142.113 155.107 142.045 157.605 142.596 160.002L153.94 208.095C151.284 211.22 148.69 214.345 146.127 217.533L96.7841 215.814C94.3219 215.724 91.8776 216.265 89.6838 217.386C87.49 218.508 85.6197 220.172 84.2509 222.22C82.8821 224.269 82.0603 226.634 81.8637 229.09C81.6671 231.546 82.1023 234.011 83.1279 236.251L103.565 281.126C101.597 284.719 99.6278 288.344 97.7216 292.063L49.0969 299.938C46.6629 300.329 44.3696 301.337 42.4354 302.865C40.5012 304.394 38.9906 306.392 38.0476 308.67C37.1045 310.947 36.7604 313.429 37.0481 315.877C37.3357 318.325 38.2455 320.659 39.6907 322.656L68.4405 362.625C67.1905 366.562 66.0031 370.531 64.8468 374.5L18.7221 391.781C16.4167 392.642 14.3698 394.079 12.7757 395.954C11.1817 397.829 10.0935 400.081 9.61443 402.495C9.13538 404.909 9.28141 407.405 10.0386 409.747C10.7959 412.088 12.1391 414.198 13.9409 415.874L50.0344 449.53C49.5656 453.593 49.1594 457.655 48.8157 461.749L6.84719 487.749C4.75379 489.042 3.02583 490.85 1.82744 492.999C0.629047 495.149 0 497.569 0 500.03C0 502.491 0.629047 504.911 1.82744 507.06C3.02583 509.21 4.75379 511.017 6.84719 512.311L48.8157 538.279C49.1594 542.373 49.5656 546.467 50.0344 550.529L13.9409 584.185C12.1391 585.862 10.7959 587.971 10.0386 590.313C9.28141 592.654 9.13538 595.151 9.61443 597.565C10.0935 599.979 11.1817 602.23 12.7757 604.105C14.3698 605.981 16.4167 607.417 18.7221 608.279L64.8468 625.528C66.0031 629.528 67.2218 633.497 68.4718 637.403L39.6907 677.403C38.253 679.4 37.3494 681.731 37.0659 684.175C36.7823 686.619 37.1281 689.095 38.0704 691.368C39.0128 693.641 40.5205 695.635 42.4503 697.162C44.3801 698.688 46.668 699.696 49.0969 700.09L97.7216 707.996C99.6278 711.684 101.565 715.34 103.597 718.934L83.1279 763.777C82.1023 766.017 81.6671 768.483 81.8637 770.938C82.0603 773.394 82.8821 775.759 84.2509 777.808C85.6197 779.856 87.49 781.52 89.6838 782.642C91.8776 783.763 94.3219 784.305 96.7841 784.214L146.127 782.496C148.69 785.714 151.284 788.839 153.94 791.964L142.596 840.057C142.015 842.457 142.061 844.966 142.731 847.342C143.401 849.719 144.672 851.883 146.421 853.626C148.17 855.368 150.338 856.631 152.717 857.292C155.096 857.954 157.605 857.991 160.002 857.401L208.065 846.089C211.19 848.745 214.346 851.307 217.533 853.87L215.814 903.244C215.721 905.707 216.261 908.152 217.382 910.346C218.503 912.541 220.169 914.411 222.219 915.778C224.27 917.145 226.636 917.963 229.093 918.154C231.55 918.345 234.015 917.903 236.252 916.869L281.095 896.432C284.689 898.432 288.345 900.401 292.033 902.307L299.939 950.9C300.317 953.341 301.317 955.644 302.842 957.588C304.368 959.531 306.367 961.05 308.648 961.997C310.93 962.945 313.417 963.29 315.87 962.999C318.323 962.709 320.661 961.792 322.658 960.337L362.626 931.525C366.563 932.775 370.532 934.025 374.501 935.15L391.751 981.275C392.598 983.592 394.028 985.653 395.902 987.258C397.777 988.863 400.033 989.958 402.454 990.438C404.874 990.919 407.377 990.768 409.723 990C412.068 989.233 414.176 987.874 415.844 986.056L449.532 949.962C453.594 950.431 457.657 950.837 461.75 951.212L487.75 993.181C489.049 995.267 490.859 996.988 493.008 998.181C495.156 999.374 497.573 1000 500.031 1000C502.489 1000 504.906 999.374 507.055 998.181C509.204 996.988 511.013 995.267 512.312 993.181L538.281 951.181C542.375 950.838 546.468 950.431 550.531 949.962L584.187 986.056C585.856 987.867 587.962 989.219 590.304 989.982C592.645 990.745 595.143 990.893 597.559 990.413C599.974 989.933 602.226 988.841 604.098 987.241C605.97 985.64 607.399 983.586 608.249 981.275L625.53 935.15C629.499 934.025 633.468 932.775 637.405 931.525L677.405 960.337C679.406 961.767 681.739 962.662 684.183 962.94C686.626 963.217 689.1 962.867 691.371 961.922C693.641 960.978 695.634 959.47 697.16 957.541C698.686 955.613 699.695 953.327 700.092 950.9L708.03 902.276C711.686 900.401 715.311 898.401 718.936 896.432L763.779 916.869C766.019 917.904 768.487 918.346 770.946 918.154C773.406 917.961 775.775 917.14 777.826 915.77C779.877 914.399 781.542 912.525 782.661 910.326C783.78 908.127 784.316 905.678 784.217 903.213L782.498 853.839C785.686 851.339 788.842 848.745 791.967 846.089L840.029 857.401C842.424 857.985 844.93 857.942 847.304 857.278C849.678 856.614 851.842 855.35 853.587 853.608C855.332 851.867 856.599 849.705 857.268 847.332C857.936 844.959 857.983 842.454 857.404 840.057L846.091 791.964C848.716 788.839 851.31 785.714 853.873 782.496L903.247 784.214C905.713 784.317 908.163 783.783 910.362 782.664C912.562 781.545 914.436 779.879 915.805 777.826C917.173 775.772 917.99 773.401 918.177 770.941C918.364 768.48 917.915 766.013 916.872 763.777L896.435 718.934C898.435 715.34 900.372 711.684 902.279 707.996L950.903 700.09C953.341 699.713 955.641 698.714 957.581 697.19C959.522 695.666 961.037 693.669 961.982 691.39C962.927 689.111 963.27 686.627 962.977 684.177C962.684 681.728 961.765 679.395 960.309 677.403L931.56 637.403C932.802 633.459 934 629.5 935.153 625.528L981.278 608.279C983.596 607.431 985.656 606.001 987.261 604.127C988.866 602.252 989.961 599.996 990.442 597.576C990.922 595.155 990.771 592.652 990.003 590.307C989.236 587.961 987.878 585.853 986.059 584.185L949.966 550.529C950.403 546.467 950.809 542.373 951.184 538.279L993.153 512.311C995.246 511.017 996.974 509.21 998.173 507.06C999.371 504.911 1000 502.491 1000 500.03C1000 497.569 999.371 495.149 998.173 492.999C996.974 490.85 995.246 489.042 993.153 487.749ZM712.186 835.995C704.656 834.164 698.137 829.468 694.017 822.904C689.896 816.34 688.5 808.428 690.125 800.85C691.749 793.273 696.266 786.629 702.715 782.331C709.164 778.033 717.036 776.422 724.655 777.839C732.214 779.646 738.766 784.339 742.91 790.915C747.053 797.491 748.459 805.427 746.825 813.026C745.192 820.625 740.65 827.282 734.17 831.575C727.691 835.868 719.82 837.454 712.186 835.995ZM697.905 739.527C694.429 738.784 690.841 738.733 687.345 739.376C683.849 740.02 680.514 741.346 677.531 743.279C674.548 745.211 671.975 747.713 669.959 750.64C667.942 753.567 666.522 756.863 665.78 760.339L650.874 829.901C603.483 851.393 552.036 862.476 500 862.401C445 862.401 392.813 850.214 345.97 828.433L331.064 758.902C330.325 755.423 328.908 752.124 326.893 749.193C324.878 746.262 322.305 743.757 319.322 741.822C316.338 739.886 313.002 738.557 309.505 737.911C306.007 737.266 302.417 737.316 298.939 738.058L239.998 751.253C249.731 764.419 228.588 739.51 239.998 751.253L497.828 538.404L201.065 363.531L793.061 711.946C793.061 711.946 770.249 739.571 758.061 751.945L697.936 739.496L697.905 739.527ZM284.689 834.526C277.07 835.944 269.199 834.332 262.75 830.034C256.301 825.737 251.784 819.092 250.159 811.515C248.534 803.938 249.931 796.025 254.051 789.462C258.171 782.898 264.69 778.201 272.22 776.371C276.041 775.554 279.985 775.498 283.827 776.205C287.67 776.913 291.335 778.37 294.614 780.495C297.893 782.619 300.722 785.368 302.938 788.585C305.155 791.802 306.716 795.425 307.533 799.245C308.349 803.066 308.405 807.01 307.698 810.852C306.99 814.695 305.533 818.36 303.409 821.639C301.284 824.918 298.535 827.747 295.318 829.963C292.101 832.18 288.478 833.741 284.658 834.558L284.689 834.526ZM171.346 374.937C172.928 378.501 173.793 382.342 173.89 386.24C173.988 390.139 173.317 394.018 171.915 397.657C170.514 401.296 168.409 404.623 165.722 407.448C163.034 410.274 159.817 412.542 156.252 414.124C152.688 415.706 148.847 416.571 144.949 416.668C141.051 416.766 137.172 416.095 133.533 414.693C129.894 413.292 126.567 411.187 123.741 408.5C120.916 405.812 118.647 402.595 117.065 399.031C113.87 391.833 113.665 383.66 116.496 376.311C119.327 368.962 124.961 363.039 132.159 359.844C139.357 356.649 147.529 356.444 154.878 359.274C162.227 362.105 168.151 367.739 171.346 374.937ZM136.503 457.53L200.471 429.093C207.035 426.167 212.171 420.756 214.749 414.047C217.327 407.338 217.137 399.881 214.221 393.312L201.065 363.531L497.828 538.404L239.998 751.253L203.749 705.003L175.004 657.503L148.346 597.091C135.442 551.769 131.441 504.381 136.503 457.53ZM865.622 496.811C865.622 505.936 865.681 508.536 864.994 517.505L859.994 557.504L855.56 575.697L846.81 605.697L840.561 624.447L830.561 648.197L819.311 670.696L793.061 711.946L201.065 363.531L182.499 331.257C182.499 331.257 246.557 176.598 438.747 142.81L477.906 185.439C488.25 196.251 505.406 196.689 516.187 186.314L567.374 137.377C619.52 147.168 668.913 168.181 712.129 198.96C755.346 229.738 791.353 269.547 817.654 315.625L782.623 394.749C779.715 401.319 779.53 408.774 782.107 415.48C784.684 422.186 789.814 427.598 796.373 430.53L863.841 460.468C864.997 472.436 865.622 484.53 865.622 496.811ZM477.938 96.6588C480.758 93.9624 484.082 91.8483 487.72 90.4375C491.357 89.0268 495.238 88.347 499.138 88.4369C503.039 88.5269 506.884 89.3849 510.453 90.9619C514.022 92.5389 517.245 94.804 519.937 97.6275C522.634 100.455 524.747 103.786 526.156 107.43C527.565 111.074 528.242 114.96 528.149 118.866C528.056 122.771 527.195 126.621 525.614 130.194C524.034 133.767 521.765 136.993 518.937 139.69C516.118 142.383 512.795 144.494 509.159 145.902C505.522 147.309 501.644 147.986 497.746 147.893C493.848 147.8 490.006 146.94 486.441 145.36C482.876 143.781 479.657 141.514 476.969 138.69C471.537 132.981 468.589 125.352 468.77 117.474C468.952 109.596 472.248 102.111 477.938 96.6588ZM825.529 376.375C828.728 369.177 834.656 363.544 842.008 360.717C849.36 357.889 857.534 358.098 864.732 361.297C871.93 364.496 877.562 370.423 880.39 377.775C883.218 385.127 883.009 393.301 879.81 400.499C878.226 404.064 875.955 407.281 873.128 409.967C870.3 412.654 866.971 414.757 863.331 416.158C859.691 417.558 855.81 418.227 851.911 418.128C848.012 418.028 844.171 417.161 840.607 415.577C837.043 413.993 833.826 411.723 831.139 408.895C828.452 406.068 826.349 402.739 824.949 399.099C823.549 395.458 822.879 391.578 822.979 387.679C823.078 383.78 823.945 379.939 825.529 376.375Z" fill="url(#paint2_radial_460_49)"/>
<defs>
<radialGradient id="paint0_radial_460_49" cx="0" cy="0" r="1" gradientUnits="userSpaceOnUse" gradientTransform="translate(350.072 258.94) rotate(59.3561) scale(598.391 598.39)">
<stop stop-color="#9D5B33"/>
<stop offset="0.745192" stop-color="#4A4A48"/>
<stop offset="1" stop-color="#604235"/>
</radialGradient>
<linearGradient id="paint1_linear_460_49" x1="229.678" y1="131.1" x2="354.685" y2="342.107" gradientUnits="userSpaceOnUse">
<stop stop-color="#9D5B33"/>
<stop offset="0.721154" stop-color="#74533E"/>
<stop offset="1" stop-color="#5F4E43"/>
</linearGradient>
<radialGradient id="paint2_radial_460_49" cx="0" cy="0" r="1" gradientUnits="userSpaceOnUse" gradientTransform="translate(254.217 104.819) rotate(59.3561) scale(980.967)">
<stop stop-color="#9D5B33"/>
<stop offset="0.745192" stop-color="#4A4A48"/>
<stop offset="1" stop-color="#604235"/>
</radialGradient>
</defs>
</svg>
